<svg width="206" height="200" viewBox="0 0 206 200" fill="none" xmlns="http://www.w3.org/2000/svg">
<g clip-path="url(#clip0_100_69)">
<path d="M36.3482 0H168.827C188.912 0 205.152 16.2393 205.152 36.3248V163.675C205.152 183.761 188.912 200 168.827 200H36.3482C16.2628 200 0.0234375 183.761 0.0234375 163.675V36.3248C0.0234375 16.2393 16.2628 0 36.3482 0Z" fill="#00005B"/>
<path d="M82.4161 119.658H50.6213L44.1255 139.829C43.9546 140.598 43.2708 141.111 42.5016 141.026H26.4332C25.4931 141.026 25.2366 140.513 25.4931 139.487L53.0144 60.5984C53.2708 59.7437 53.5272 58.9745 53.8691 57.9489C54.211 56.154 54.3819 54.2736 54.3819 52.3933C54.2965 51.9659 54.6384 51.5386 55.0657 51.4531H77.2025C77.8007 51.4531 78.2281 51.7095 78.3136 52.1369L109.51 139.744C109.767 140.684 109.51 141.111 108.655 141.111H90.7922C90.1939 141.197 89.5956 140.769 89.4247 140.171L82.4161 119.658ZM55.5785 102.65H77.2879C76.7751 100.855 76.0913 98.7181 75.3221 96.4959C74.5529 94.1882 73.7837 91.7095 73.0144 89.1454C72.1597 86.4959 71.3905 83.9318 70.5358 81.2822C69.6811 78.6326 68.9119 76.154 68.2281 73.6753C67.5443 71.2822 66.946 69.06 66.3478 67.0087H66.1768C65.4076 70.6839 64.4674 74.3591 63.2708 78.0343C61.9888 82.1369 60.7067 86.4104 59.3392 90.6839C58.2281 95.0429 56.8606 99.06 55.5785 102.65ZM160.194 111.795H133.1C133.442 114.445 134.296 117.094 135.749 119.402C137.288 121.71 139.425 123.504 141.989 124.53C145.408 125.983 149.168 126.752 152.929 126.667C155.92 126.581 158.912 126.325 161.818 125.727C164.467 125.385 167.032 124.701 169.425 123.761C169.852 123.419 170.108 123.59 170.108 124.445V137.521C170.108 137.863 170.023 138.205 169.937 138.547C169.767 138.804 169.596 138.974 169.339 139.145C166.604 140.342 163.784 141.197 160.792 141.71C156.775 142.479 152.758 142.821 148.655 142.735C142.16 142.735 136.69 141.71 132.245 139.744C128.057 137.949 124.382 135.128 121.476 131.624C118.741 128.291 116.775 124.53 115.579 120.427C114.382 116.41 113.784 112.222 113.784 107.949C113.784 103.333 114.467 98.8036 115.92 94.3591C117.288 90.0856 119.425 86.154 122.331 82.6497C125.151 79.2309 128.655 76.4959 132.673 74.53C136.69 72.5642 141.476 71.8805 146.946 71.8805C151.476 71.795 156.006 72.6497 160.194 74.53C163.698 76.0685 166.775 78.3762 169.168 81.3677C171.39 84.2736 173.185 87.5215 174.296 91.1112C175.408 94.53 175.92 98.0343 175.92 101.539C175.92 103.59 175.835 105.385 175.749 107.009C175.579 108.633 175.493 109.829 175.408 110.598C175.322 111.197 174.809 111.71 174.211 111.71C173.698 111.71 172.758 111.795 171.39 111.88C170.023 112.051 168.399 112.137 166.433 112.137C164.467 112.137 162.416 111.795 160.194 111.795ZM133.1 99.3164H151.134C153.356 99.3164 154.98 99.3164 156.006 99.2309C156.69 99.1454 157.373 98.9745 157.972 98.5471V97.6924C157.972 96.5813 157.801 95.5557 157.459 94.53C155.92 89.7437 151.39 86.4959 146.348 86.6668C141.647 86.4104 137.202 88.889 134.98 93.1625C133.955 95.1283 133.356 97.1796 133.1 99.3164Z" fill="#9999FF"/>
</g>
<defs>
<clipPath id="clip0_100_69">
<rect width="205.128" height="200" fill="white" transform="translate(0.0234375)"/>
</clipPath>
</defs>
</svg>
