<svg width="208" height="200" viewBox="0 0 208 200" fill="none" xmlns="http://www.w3.org/2000/svg">
<path d="M170.92 0H36.4374C16.4408 0 0.230469 16.2104 0.230469 36.2069V163.793C0.230469 183.79 16.4408 200 36.4374 200H170.92C190.917 200 207.127 183.79 207.127 163.793V36.2069C207.127 16.2104 190.917 0 170.92 0Z" fill="#330000"/>
<path d="M104.36 124.138H73.5067L65.5412 147.138C65.4493 147.896 64.9694 148.276 64.1016 148.276H49.6188C48.6533 148.276 48.3171 147.802 48.6102 146.853L76.5585 63.8446C77.3478 61.3172 77.7375 58.682 77.7136 56.0343C77.698 55.9174 77.7096 55.7985 77.7474 55.6868C77.7852 55.575 77.8482 55.4736 77.9316 55.3902C78.015 55.3068 78.1165 55.2437 78.2282 55.2059C78.3399 55.1681 78.4588 55.1566 78.5757 55.1722H98.8516C99.4378 55.1722 99.774 55.4136 99.8688 55.8791L131.145 147C131.438 147.862 131.196 148.276 130.421 148.276H114.205C113.905 148.294 113.607 148.221 113.348 148.067C113.09 147.914 112.884 147.686 112.757 147.414L104.36 124.138ZM76.955 108.62H100.99C100.412 107.353 89.6016 72.4739 88.8257 69.5343H88.6878L76.955 108.62ZM148.429 72.4136C147.07 72.4717 145.713 72.2567 144.438 71.7814C143.163 71.3062 141.996 70.5802 141.007 69.6463C140.038 68.6618 139.285 67.4867 138.796 66.1955C138.306 64.9043 138.09 63.5254 138.162 62.1463C138.098 60.7498 138.324 59.3551 138.827 58.0507C139.331 56.7463 140.099 55.5606 141.084 54.5688C142.082 53.6191 143.259 52.8783 144.547 52.3898C145.835 51.9013 147.208 51.6749 148.584 51.7239C149.963 51.6521 151.342 51.8679 152.633 52.3577C153.925 52.8474 155.1 53.6004 156.084 54.5688C157.027 55.584 157.757 56.7772 158.232 58.0785C158.707 59.3797 158.918 60.7627 158.852 62.1463C158.923 63.5254 158.708 64.9043 158.218 66.1955C157.728 67.4867 156.975 68.6618 156.007 69.6463C154.991 70.5888 153.798 71.319 152.497 71.7942C151.196 72.2694 149.813 72.48 148.429 72.4136ZM139.886 146.983V80.4653C139.863 80.3082 139.877 80.1479 139.927 79.9971C139.976 79.8464 140.061 79.7094 140.173 79.5971C140.285 79.4849 140.422 79.4004 140.573 79.3506C140.724 79.3007 140.884 79.2869 141.041 79.3101H155.972C156.129 79.2887 156.289 79.3039 156.438 79.3544C156.588 79.4049 156.725 79.4893 156.836 79.6012C156.948 79.713 157.033 79.8492 157.083 79.9991C157.134 80.149 157.149 80.3086 157.127 80.4653V147.12C157.151 147.278 157.137 147.438 157.087 147.589C157.037 147.739 156.953 147.876 156.84 147.989C156.728 148.101 156.591 148.185 156.44 148.235C156.29 148.285 156.129 148.299 155.972 148.276H141.179C141.004 148.3 140.825 148.283 140.657 148.227C140.489 148.171 140.336 148.076 140.211 147.951C140.086 147.825 139.991 147.673 139.935 147.505C139.878 147.337 139.862 147.158 139.886 146.983Z" fill="#FF9A00"/>
</svg>
