<svg width="120" height="180" viewBox="0 0 120 180" fill="none" xmlns="http://www.w3.org/2000/svg">
<path d="M30 180C46.56 180 60 166.56 60 150V120H30C13.44 120 0 133.44 0 150C0 166.56 13.44 180 30 180Z" fill="#0ACF83"/>
<path d="M0 90C0 73.44 13.44 60 30 60H60V120H30C13.44 120 0 106.56 0 90Z" fill="#A259FF"/>
<path d="M0 30C0 13.44 13.44 0 30 0H60V60H30C13.44 60 0 46.56 0 30Z" fill="#F24E1E"/>
<path d="M60 0H90C106.56 0 120 13.44 120 30C120 46.56 106.56 60 90 60H60V0Z" fill="#FF7262"/>
<path d="M120 90C120 106.56 106.56 120 90 120C73.44 120 60 106.56 60 90C60 73.44 73.44 60 90 60C106.56 60 120 73.44 120 90Z" fill="#1ABCFE"/>
</svg>
