<svg width="200" height="207" viewBox="0 0 200 207" fill="none" xmlns="http://www.w3.org/2000/svg">
<g clip-path="url(#clip0_24_148)">
<path d="M199.532 47.152C199.606 47.4259 199.644 47.7082 199.644 47.9919V92.0824C199.644 92.6483 199.495 93.2042 199.211 93.6939C198.927 94.1836 198.519 94.5897 198.028 94.8712L161.001 116.177V158.407C161.001 159.556 160.39 160.617 159.393 161.196L82.1029 205.664C81.926 205.765 81.733 205.829 81.54 205.897C81.4676 205.921 81.3993 205.966 81.3229 205.986C80.7826 206.128 80.2147 206.128 79.6744 205.986C79.5859 205.962 79.5055 205.913 79.4211 205.881C79.2442 205.817 79.0592 205.761 78.8903 205.664L1.61633 161.196C1.12543 160.914 0.717539 160.508 0.433772 160.018C0.150006 159.529 0.000388961 158.973 0 158.407L0 26.1355C0 25.8462 0.0402071 25.5649 0.11258 25.2916C0.136704 25.1992 0.192994 25.1148 0.22516 25.0224C0.28547 24.8536 0.34176 24.6808 0.430216 24.5241C0.490527 24.4196 0.578982 24.3352 0.651355 24.2388C0.743831 24.1102 0.828266 23.9776 0.936825 23.8651C1.0293 23.7727 1.14992 23.7043 1.25446 23.624C1.37106 23.5275 1.4756 23.423 1.60828 23.3467L40.2513 1.11256C40.7406 0.831193 41.2951 0.683105 41.8596 0.683105C42.4241 0.683105 42.9786 0.831193 43.4679 1.11256L82.1069 23.3467H82.115C82.2436 23.4271 82.3522 23.5275 82.4688 23.62C82.5733 23.7003 82.6899 23.7727 82.7824 23.8611C82.895 23.9776 82.9754 24.1102 83.0719 24.2388C83.1402 24.3352 83.2327 24.4196 83.289 24.5241C83.3815 24.6848 83.4337 24.8536 83.4981 25.0224C83.5302 25.1148 83.5865 25.1992 83.6107 25.2956C83.6847 25.5695 83.7225 25.8518 83.7232 26.1355V108.751L115.921 90.2219V47.9879C115.921 47.7066 115.961 47.4213 116.034 47.152C116.062 47.0556 116.114 46.9712 116.146 46.8788C116.211 46.71 116.267 46.5372 116.355 46.3805C116.416 46.276 116.504 46.1916 116.572 46.0952C116.669 45.9666 116.749 45.834 116.862 45.7215C116.954 45.6291 117.071 45.5607 117.176 45.4804C117.296 45.3839 117.401 45.2794 117.529 45.2031L156.176 22.969C156.666 22.6872 157.22 22.5389 157.785 22.5389C158.349 22.5389 158.904 22.6872 159.393 22.969L198.032 45.2031C198.169 45.2835 198.273 45.3839 198.394 45.4763C198.494 45.5567 198.611 45.6291 198.703 45.7175C198.816 45.834 198.896 45.9666 198.993 46.0952C199.065 46.1916 199.154 46.276 199.21 46.3805C199.303 46.5372 199.355 46.71 199.419 46.8788C199.455 46.9712 199.508 47.0556 199.532 47.152ZM193.203 90.2219V53.5575L179.681 61.3372L161.001 72.0866V108.751L193.207 90.2219H193.203ZM154.564 156.547V119.858L136.189 130.346L83.7192 160.276V197.31L154.564 156.547ZM6.44118 31.7011V156.547L77.278 197.306V160.28L40.2714 139.348L40.2594 139.34L40.2433 139.331C40.1186 139.259 40.0141 139.155 39.8975 139.066C39.797 138.986 39.6804 138.922 39.5919 138.833L39.5839 138.821C39.4793 138.721 39.407 138.596 39.3185 138.484C39.2381 138.375 39.1416 138.283 39.0773 138.17L39.0733 138.158C39.0009 138.038 38.9567 137.893 38.9044 137.756C38.8521 137.636 38.7838 137.523 38.7516 137.395C38.7114 137.242 38.7034 137.077 38.6873 136.92C38.6712 136.8 38.639 136.679 38.639 136.559V50.2302L19.9628 39.4768L6.44118 31.7011ZM41.8636 7.61443L9.66981 26.1355L41.8556 44.6566L74.0454 26.1315L41.8556 7.61443H41.8636ZM58.6059 123.201L77.2821 112.456V31.7011L63.7604 39.4808L45.0802 50.2302V130.985L58.6059 123.201ZM157.785 29.4708L125.595 47.9919L157.785 66.513L189.97 47.9879L157.785 29.4708ZM154.564 72.0866L135.884 61.3372L122.362 53.5575V90.2219L141.038 100.967L154.564 108.751V72.0866ZM80.4946 154.71L127.71 127.77L151.311 114.309L119.146 95.7995L82.1109 117.109L48.3571 136.531L80.4946 154.71Z" fill="#FF2D20"/>
</g>
<defs>
<clipPath id="clip0_24_148">
<rect width="200" height="206.667" fill="white"/>
</clipPath>
</defs>
</svg>
