<svg width="200" height="27" viewBox="0 0 200 27" fill="none" xmlns="http://www.w3.org/2000/svg">
<g clip-path="url(#clip0_49_51)">
<path d="M29.0371 26.4463H23.3021V10.4484H23.1778L16.839 26.18H13.1103L6.78924 10.4484H6.64719V26.4463H0.912109V0.824829H8.44053L14.9036 17.2843H15.0456L21.5087 0.824829H29.0371V26.4463ZM42.73 26.4463H36.2137V0.824829H42.73V26.4463ZM62.371 26.4463H55.8723V6.08051H48.8056V0.824829H69.4378V6.08051H62.371V26.4463ZM82.012 5.74316V13.023H85.8295C87.0251 13.023 87.9601 12.6975 88.6348 12.0464C89.3095 11.3954 89.6469 10.5135 89.6469 9.40082C89.6469 8.29996 89.2978 7.41811 88.5993 6.75522C87.9009 6.08051 86.9717 5.74316 85.8117 5.74316H82.012ZM82.012 17.4797V26.4463H75.4957V0.824829H86.4687C89.6409 0.824829 92.0735 1.56465 93.7662 3.0443C95.459 4.52393 96.3052 6.60135 96.3052 9.27653C96.3052 10.8864 95.9147 12.3483 95.1335 13.6622C94.3641 14.9643 93.2928 15.9172 91.9196 16.5209L97.051 26.4463H89.7357L85.3323 17.4797H82.012ZM119.728 26.4463L118.113 20.8177H109.732L108.098 26.4463H101.458L110.069 0.824829H118.041L126.653 26.4463H119.728ZM113.851 6.25806L110.993 16.1302H116.834L113.993 6.25806H113.851ZM144.394 26.4463H136.191L128.023 0.824829H135.428L140.364 20.0721H140.506L145.424 0.824829H152.562L144.394 26.4463ZM175.878 21.1906V26.4463H158.318V0.824829H175.878V6.08051H164.834V11.1764H175.222V15.9704H164.834V21.1906H175.878ZM199.975 21.1906V26.4463H182.86V0.824829H189.375V21.1906H199.975Z" fill="white"/>
</g>
<defs>
<clipPath id="clip0_49_51">
<rect width="200" height="26.4463" fill="white"/>
</clipPath>
</defs>
</svg>
