<svg width="208" height="200" viewBox="0 0 208 200" fill="none" xmlns="http://www.w3.org/2000/svg">
<path d="M170.817 0H36.3339C16.3373 0 0.126953 16.2104 0.126953 36.2069V163.793C0.126953 183.79 16.3373 200 36.3339 200H170.817C190.813 200 207.024 183.79 207.024 163.793V36.2069C207.024 16.2104 190.813 0 170.817 0Z" fill="#00005B"/>
<path d="M44.9544 147.31V53.4483C44.9375 53.3175 44.9508 53.1845 44.9933 53.0597C45.0359 52.9348 45.1065 52.8214 45.1998 52.7281C45.293 52.6349 45.4065 52.5642 45.5313 52.5217C45.6561 52.4791 45.7891 52.4658 45.9199 52.4827C52.9113 52.3017 61.1613 51.7241 71.9199 51.7241C84.6096 51.7241 93.9199 54.3707 99.8509 60.0689C102.732 62.7649 105.014 66.0373 106.546 69.6733C108.079 73.3093 108.829 77.2274 108.747 81.1724C108.747 91.569 105.069 99.2931 97.713 104.345C90.3567 109.397 81.1038 111.925 69.9544 111.931L62.1958 112.069V147.172C62.2174 147.322 62.2038 147.475 62.156 147.619C62.1082 147.763 62.0276 147.893 61.9205 148.001C61.8133 148.108 61.6827 148.188 61.5389 148.236C61.3952 148.284 61.2423 148.298 61.0923 148.276H46.0578C45.3251 148.276 44.9544 147.957 44.9544 147.31ZM62.1958 65.1896V99.1379C62.1958 99.1379 66.1268 98.9827 70.8165 98.9827C76.9831 98.9827 81.9716 97.6264 85.782 94.9138C89.5923 92.2011 91.5004 87.7586 91.5061 81.5862C91.5061 76.1609 89.828 71.977 86.4716 69.0345C83.1153 66.0919 78.2647 64.6322 71.9199 64.6552C70.3596 64.6552 68.8165 64.6552 67.2992 64.7241C65.782 64.7931 64.5406 64.7931 63.5751 64.7931C62.6096 64.7931 62.0923 64.7586 62.1958 65.1896ZM121.679 79.3103H136.334C136.687 79.2985 137.034 79.4048 137.32 79.6125C137.605 79.8202 137.814 80.1174 137.911 80.4569C139.009 82.8049 139.644 85.3426 139.782 87.931C145.316 80.7758 152.127 77.5862 161.196 77.5862C161.332 77.5618 161.473 77.5708 161.606 77.6125C161.738 77.6541 161.858 77.7271 161.957 77.8253C162.055 77.9235 162.128 78.044 162.169 78.1764C162.211 78.3089 162.22 78.4495 162.196 78.5862V93.8103C162.196 94.5776 161.816 94.9052 161.049 94.8103C152.747 94.3362 146.161 95.4224 141.394 100.19C140.914 100.591 140.523 101.089 140.246 101.65C139.968 102.211 139.81 102.823 139.782 103.448V147.276C139.782 147.94 139.403 148.276 138.635 148.276H123.825C122.963 148.276 122.541 147.897 122.541 147.129V98.2758C122.541 86.7069 121.679 85.0603 120.816 80.3103C120.722 79.6465 121.006 79.3103 121.679 79.3103Z" fill="#9999FF"/>
</svg>
