<svg width="208" height="200" viewBox="0 0 208 200" fill="none" xmlns="http://www.w3.org/2000/svg">
<path d="M171.024 0H36.5409C16.5444 0 0.333984 16.2104 0.333984 36.2069V163.793C0.333984 183.79 16.5444 200 36.5409 200H171.024C191.02 200 207.231 183.79 207.231 163.793V36.2069C207.231 16.2104 191.02 0 171.024 0Z" fill="#001E36"/>
<path d="M43.4378 147.31V53.4483C43.4209 53.3175 43.4342 53.1845 43.4767 53.0597C43.5193 52.9348 43.5899 52.8214 43.6832 52.7281C43.7764 52.6349 43.8898 52.5642 44.0147 52.5217C44.1395 52.4791 44.2725 52.4658 44.4033 52.4827C51.3947 52.3017 59.6447 51.7241 70.4033 51.7241C83.093 51.7241 92.4033 54.3707 98.3343 60.0689C101.216 62.7649 103.497 66.0373 105.03 69.6733C106.563 73.3093 107.313 77.2274 107.231 81.1724C107.231 91.569 103.553 99.2931 96.1964 104.345C88.8401 109.397 79.5872 111.925 68.4378 111.931L60.6792 112.069V147.172C60.7008 147.322 60.6872 147.475 60.6394 147.619C60.5916 147.763 60.511 147.893 60.4039 148.001C60.2967 148.108 60.1661 148.188 60.0223 148.236C59.8786 148.284 59.7257 148.298 59.5757 148.276H44.5412C43.8085 148.276 43.4378 147.957 43.4378 147.31ZM60.6792 65.1896V99.1379C60.6792 99.1379 64.6102 98.9827 69.2999 98.9827C75.4665 98.9827 80.455 97.6264 84.2654 94.9138C88.0757 92.2011 89.9838 87.7586 89.9895 81.5862C89.9895 76.1609 88.3114 71.977 84.955 69.0345C81.5987 66.0919 76.7481 64.6322 70.4033 64.6552C68.843 64.6552 67.2999 64.6552 65.7826 64.7241C64.2654 64.7931 63.024 64.7931 62.0585 64.7931C61.093 64.7931 60.5757 64.7586 60.6792 65.1896ZM164.127 125.862C164.127 136.422 157.231 141.379 157.231 141.379V141.328C156.817 141.733 156.369 142.112 155.929 142.483C151.182 146.345 144.765 148.276 136.679 148.276C128.593 148.276 121.984 146.787 116.852 143.81C116.568 143.712 116.327 143.518 116.17 143.262C116.013 143.005 115.949 142.703 115.99 142.405V129.414C115.977 129.267 116.002 129.12 116.062 128.985C116.122 128.851 116.216 128.734 116.334 128.647C116.428 128.579 116.543 128.549 116.658 128.561C116.773 128.574 116.879 128.629 116.955 128.716C122.426 133.014 129.17 135.374 136.127 135.422C139.34 135.422 141.8 134.848 143.507 133.698C144.294 133.229 144.945 132.564 145.399 131.768C145.852 130.971 146.091 130.071 146.093 129.155C146.111 128.231 145.937 127.312 145.581 126.459C145.225 125.605 144.694 124.835 144.024 124.198C142.645 122.842 139.932 121.374 135.886 119.793C128.524 116.92 123.398 113.822 120.507 110.5C117.447 107.172 115.781 102.796 115.852 98.2758C115.853 95.4637 116.457 92.6845 117.623 90.1254C118.789 87.5662 120.49 85.2865 122.61 83.4396C126.926 79.5258 133.087 77.569 141.093 77.569C148.564 77.569 154.311 78.5948 158.334 80.6465C158.791 80.9224 159.024 81.5086 159.024 82.4569V94.0517C159.024 95.1724 158.61 95.4483 157.783 94.9138C152.987 91.7631 147.383 90.0657 141.645 90.0258C138.421 90.0258 136.058 90.6379 134.541 91.8448C133.851 92.3348 133.285 92.9802 132.89 93.7289C132.495 94.4776 132.281 95.3087 132.265 96.1552C132.263 96.9834 132.433 97.8031 132.766 98.5616C133.098 99.3202 133.586 100.001 134.196 100.56C135.484 101.819 138.196 103.284 142.334 104.957C149.553 107.779 154.725 110.744 157.852 113.853L157.929 113.931C161.145 116.888 164.127 120.957 164.127 125.862Z" fill="#31A8FF"/>
</svg>
