<svg width="180" height="180" viewBox="0 0 180 180" fill="none" xmlns="http://www.w3.org/2000/svg">
<path d="M92.2936 0.000346576C84.9279 0.0240305 79.8217 0.67297 73.6496 1.73875C55.4225 4.91239 52.102 11.577 52.102 23.8595V42.6314H94.7331V52.105H50.482H29.877C17.3909 52.105 6.46311 57.988 3.00052 72.0894C-0.912063 88.275 -1.08732 98.4117 3.00052 115.313C6.10311 127.917 12.9383 137.367 25.4292 137.367H42.6332V113.191C42.6332 99.1412 55.3562 85.2624 69.936 85.2624H104.211C116.162 85.2624 127.895 76.4426 127.895 64.5295V23.8595C127.895 12.3065 119.563 3.66662 107.916 1.72927C108.204 1.70085 99.5977 -0.0280741 92.2936 0.000346576ZM68.6855 18.9475C72.5744 18.9475 75.7907 22.1543 75.7907 26.0621C75.7907 30.0079 72.5744 33.1578 68.6855 33.1578C64.7208 33.1578 61.5803 30.0126 61.5803 26.0621C61.5803 22.1685 64.7208 18.9475 68.6855 18.9475Z" fill="#0277BD"/>
<path d="M87.7016 179.998C95.0673 179.974 100.174 179.325 106.346 178.259C124.573 175.086 127.893 168.421 127.893 156.139V137.367H85.2622V127.893H129.518H150.123C162.609 127.893 173.537 122.01 176.999 107.909C180.912 91.7231 181.087 81.5864 176.999 64.6856C173.892 52.081 167.057 42.6311 154.566 42.6311H137.362V66.8076C137.362 80.8569 124.639 94.7357 110.059 94.7357H75.7839C63.833 94.7357 52.1 103.556 52.1 115.469V156.139C52.1 167.692 60.432 176.332 72.0797 178.269C71.7908 178.297 80.3975 180.026 87.7016 179.998ZM111.314 161.051C107.426 161.051 104.209 157.844 104.209 153.936C104.209 149.99 107.426 146.84 111.314 146.84C115.279 146.84 118.42 149.986 118.42 153.936C118.42 157.83 115.274 161.051 111.314 161.051Z" fill="#FFC107"/>
</svg>
