<svg width="200" height="200" viewBox="0 0 200 200" fill="none" xmlns="http://www.w3.org/2000/svg">
<g clip-path="url(#clip0_24_143)">
<path d="M172.124 111.208C165.136 111.244 159.08 112.924 154.004 115.424C152.148 111.72 150.268 108.46 149.952 106.036C149.584 103.208 149.156 101.52 149.6 98.1479C150.044 94.7759 151.996 90.0039 151.964 89.6479C151.936 89.2919 151.528 87.5759 147.496 87.5439C143.464 87.5159 140.016 88.3199 139.608 89.3839C139.2 90.4479 138.424 92.8439 137.944 95.3439C137.236 98.9999 129.896 112.04 125.724 118.86C124.36 116.196 123.2 113.852 122.96 111.996C122.592 109.168 122.164 107.48 122.608 104.108C123.052 100.736 125.004 95.9639 124.972 95.6079C124.944 95.2519 124.536 93.5359 120.504 93.5039C116.472 93.4759 113.024 94.2799 112.616 95.3439C112.208 96.4079 111.776 98.8959 110.952 101.304C110.124 103.712 100.364 125.46 97.8082 131.096C96.5042 133.968 95.3722 136.276 94.5722 137.852L94.5682 137.844C94.5682 137.844 94.5202 137.948 94.4322 138.128C93.7482 139.468 93.3402 140.212 93.3402 140.212C93.3402 140.212 93.3442 140.224 93.3522 140.24C92.8082 141.224 92.2282 142.14 91.9402 142.14C91.7402 142.14 91.3362 139.516 92.0282 135.92C93.4802 128.376 96.9682 116.608 96.9362 116.204C96.9202 115.996 97.5842 113.948 94.6562 112.872C91.8122 111.832 90.7962 113.568 90.5362 113.572C90.2842 113.576 90.0962 114.184 90.0962 114.184C90.0962 114.184 93.2682 100.952 84.0482 100.952C78.2882 100.952 70.3042 107.256 66.3682 112.968C63.8882 114.32 58.5762 117.22 52.9402 120.316C50.7762 121.504 48.5682 122.72 46.4722 123.876C46.3282 123.72 46.1882 123.56 46.0402 123.404C34.8642 111.48 14.2082 103.048 15.0842 87.0199C15.4042 81.1919 17.4282 65.8479 54.7802 47.2359C85.3762 31.9879 109.872 36.1839 114.104 45.4839C120.152 58.7679 101.012 83.4599 69.2402 87.0199C57.1322 88.3759 50.7602 83.6839 49.1722 81.9359C47.5042 80.0959 47.2562 80.0119 46.6322 80.3599C45.6162 80.9239 46.2602 82.5479 46.6322 83.5159C47.5802 85.9839 51.4722 90.3639 58.1122 92.5399C63.9522 94.4559 78.1642 95.5079 95.3562 88.8599C114.608 81.4119 129.64 60.6959 125.228 43.3799C120.736 25.7679 91.5362 19.9799 63.9002 29.7959C47.4522 35.6399 29.6482 44.8119 16.8442 56.7839C1.62019 71.0239 -0.803811 83.4159 0.196189 88.5919C3.75219 106.992 29.1082 118.972 39.2642 127.852C38.7642 128.128 38.2922 128.388 37.8642 128.624C32.7722 131.144 13.4442 141.26 8.60819 151.948C3.12419 164.072 9.48019 172.772 13.6922 173.944C26.7322 177.572 40.1162 171.044 47.3082 160.316C54.5002 149.592 53.6202 135.628 50.3202 129.252C50.2802 129.172 50.2322 129.096 50.1922 129.016C51.5082 128.236 52.8482 127.448 54.1762 126.668C56.7682 125.148 59.3122 123.728 61.5202 122.524C60.2842 125.908 59.3802 129.964 58.9082 135.824C58.3562 142.708 61.1762 151.604 64.8682 155.104C66.4922 156.644 68.4482 156.68 69.6882 156.68C73.9842 156.68 75.9442 153.108 78.1002 148.88C80.7482 143.696 83.0962 137.664 83.0962 137.664C83.0962 137.664 80.1482 153.964 88.1802 153.964C91.1042 153.964 94.0482 150.168 95.3602 148.236C95.3642 148.256 95.3642 148.268 95.3642 148.268C95.3642 148.268 95.4402 148.144 95.5882 147.888C95.8922 147.424 96.0642 147.128 96.0642 147.128C96.0642 147.128 96.0722 147.096 96.0802 147.044C97.2562 145.004 99.8642 140.348 103.776 132.668C108.828 122.748 113.676 110.324 113.676 110.324C113.676 110.324 114.128 113.364 115.604 118.384C116.472 121.34 118.32 124.608 119.776 127.74C118.604 129.368 117.884 130.3 117.884 130.3C117.884 130.3 117.892 130.316 117.904 130.348C116.968 131.592 115.916 132.932 114.816 134.244C110.828 138.996 106.076 144.42 105.44 145.988C104.692 147.832 104.868 149.192 106.316 150.28C107.372 151.076 109.256 151.2 111.224 151.068C114.808 150.828 117.332 149.936 118.576 149.396C120.516 148.712 122.776 147.632 124.896 146.072C128.808 143.196 131.168 139.08 130.944 133.628C130.82 130.624 129.86 127.648 128.648 124.836C129.004 124.324 129.36 123.812 129.716 123.288C135.884 114.268 140.668 104.36 140.668 104.36C140.668 104.36 141.12 107.4 142.596 112.42C143.344 114.964 144.82 117.736 146.144 120.456C140.344 125.168 136.748 130.644 135.496 134.236C133.188 140.88 134.996 143.892 138.388 144.576C139.924 144.888 142.096 144.184 143.728 143.492C145.76 142.82 148.2 141.696 150.48 140.02C154.392 137.144 158.156 133.116 157.928 127.664C157.824 125.184 157.152 122.72 156.24 120.352C161.156 118.304 167.524 117.164 175.632 118.112C193.028 120.144 196.44 131.004 195.788 135.548C195.136 140.096 191.488 142.592 190.268 143.348C189.048 144.104 188.676 144.364 188.78 144.924C188.928 145.74 189.492 145.708 190.532 145.532C191.964 145.292 199.664 141.836 199.996 133.444C200.412 122.812 190.204 111.112 172.124 111.208ZM38.0522 156.408C32.2922 162.692 24.2402 165.068 20.7882 163.068C17.0602 160.908 18.5362 151.652 25.6082 144.984C29.9162 140.92 35.4802 137.176 39.1722 134.868C40.0122 134.364 41.2442 133.62 42.7442 132.72C42.9922 132.58 43.1322 132.5 43.1322 132.5L43.1282 132.492C43.4162 132.32 43.7162 132.14 44.0202 131.956C46.5922 141.452 44.1002 149.812 38.0522 156.408ZM80.0242 127.872C78.0162 132.764 73.8162 145.28 71.2602 144.608C69.0642 144.032 67.7282 134.516 70.8202 125.156C72.3762 120.444 75.7002 114.812 77.6562 112.624C80.8002 109.108 84.2642 107.956 85.1042 109.384C86.1802 111.2 81.2842 124.804 80.0242 127.872ZM114.704 144.42C113.852 144.864 113.072 145.144 112.712 144.928C112.444 144.768 113.064 144.184 113.064 144.184C113.064 144.184 117.4 139.516 119.112 137.392C120.104 136.156 121.26 134.688 122.512 133.048C122.524 133.212 122.528 133.376 122.528 133.536C122.512 139.128 117.112 142.9 114.704 144.42ZM141.42 138.328C140.784 137.876 140.892 136.416 142.976 131.872C143.796 130.088 145.664 127.08 148.916 124.208C149.292 125.388 149.524 126.52 149.516 127.576C149.472 134.612 144.452 137.24 141.42 138.328Z" fill="#D34A47"/>
</g>
<defs>
<clipPath id="clip0_24_143">
<rect width="200" height="200" fill="white"/>
</clipPath>
</defs>
</svg>
