<svg width="176" height="180" viewBox="0 0 176 180" fill="none" xmlns="http://www.w3.org/2000/svg">
<g clip-path="url(#clip0_24_174)">
<path d="M87.8563 0.225098C64.7268 0.225098 42.5446 9.68351 26.1895 26.5196C9.83447 43.3557 0.646301 66.1903 0.646301 90.0001C0.646301 113.81 9.83447 136.645 26.1895 153.481C42.5446 170.317 64.7268 179.775 87.8563 179.775C110.986 179.775 133.168 170.317 149.523 153.481C165.878 136.645 175.066 113.81 175.066 90.0001C175.066 66.1903 165.878 43.3557 149.523 26.5196C133.168 9.68351 110.986 0.225098 87.8563 0.225098Z" fill="white"/>
<path d="M17.9186 90C17.9186 118.512 34.0054 143.127 57.3401 154.8L23.9686 60.696C20.0912 69.6555 17.9186 79.542 17.9186 90ZM135.086 86.373C135.086 77.4765 130.439 71.298 127.786 66.519C124.232 60.5385 120.896 55.5525 120.896 49.635C120.896 43.0425 127.327 36.855 134.19 36.855C134.5 36.855 134.78 36.882 135.09 36.891C122.658 25.128 106.077 18 87.8614 18C64.3038 18 43.4783 29.997 30.8055 48.3705C31.8022 48.7035 32.1476 48.546 33.4765 48.546C40.7724 48.546 52.1163 47.646 52.1163 47.646C55.8757 47.3895 56.3347 53.1 52.549 53.568C52.549 53.568 48.7721 54.0405 44.5581 54.252L70.485 134.253L85.785 86.9985L74.4062 54.3825C70.6424 54.1755 67.0665 53.6985 67.0665 53.6985C63.2984 53.4465 63.7355 47.511 67.4949 47.7765C67.4949 47.7765 79.0705 48.6765 85.9293 48.6765C93.2514 48.6765 104.569 47.7765 104.569 47.7765C108.333 47.52 108.787 53.2305 105.024 53.6985C105.024 53.6985 101.221 54.171 97.0152 54.3825L122.767 133.628L129.757 109.66C133.316 100.3 135.086 92.5605 135.086 86.373ZM89.0854 96.282L68.1026 159.066C74.3799 160.983 80.9983 162 87.8614 162C95.9967 162 103.813 160.542 111.1 157.918C110.925 157.599 110.728 157.275 110.584 156.928L89.0854 96.282ZM149.245 55.431C149.555 57.726 149.717 60.1965 149.717 62.8335C149.717 70.1595 148.379 78.363 144.388 88.65L123.034 152.257C143.833 139.783 157.8 116.559 157.8 90C157.8 77.4855 154.692 65.718 149.245 55.431Z" fill="#01579B"/>
<path d="M0.428589 90C0.428589 139.608 39.6403 180 87.8528 180C136.074 180 175.286 139.608 175.286 90C175.286 40.392 136.074 0 87.8572 0C39.6403 0 0.428589 40.392 0.428589 90ZM9.14959 90C9.14959 45.342 44.4445 9.0045 87.8528 9.0045C131.261 9.0045 166.565 45.342 166.565 90C166.565 134.658 131.261 171.005 87.8572 171.005C44.4576 171.005 9.14959 134.658 9.14959 90Z" fill="#01579B"/>
</g>
<defs>
<clipPath id="clip0_24_174">
<rect width="174.857" height="180" fill="white" transform="translate(0.428589)"/>
</clipPath>
</defs>
</svg>
